# xmcd
#
# Track frame offsets: 
#        150
#        10601
#        22399
#        35056
#        55813
#        67183
#        84932
#        102407
#        118101
#        138596
#        154697
#        178166
#        195560
#        213359
#        233445
#        249820
#        265607
#        282963
#        297341
#        311971
#
# Disc length: 4331 seconds
#
# Revision: 2
# Processed by: cddbd v1.5.2PL0 Copyright (c) Steve Scherf et al.
# Submitted via: ExactAudioCopy v0.99pb5
#
DISCID=2210e914
DTITLE=George Baker Selection - 100 - CD 3
DYEAR=2008
DGENRE=Pop
TTITLE0=Pretty little dreamer
TTITLE1=Fly
TTITLE2=I wanna love you
TTITLE3=Dreamboat
TTITLE4=Suzanna
TTITLE5=Sail on the wind
TTITLE6=The prisoner
TTITLE7=The good day
TTITLE8=The singer
TTITLE9=Silver
TTITLE10=River song
TTITLE11=Paradise island
TTITLE12=All the roses
TTITLE13=Gypsy woman
TTITLE14=A wonder (true love)
TTITLE15=Gone by the wind
TTITLE16=How can I live without your love
TTITLE17=Marian
TTITLE18=Fiesta
TTITLE19=Mademoiselle
EXTD=cd 3
EXTT0=
EXTT1=
EXTT2=
EXTT3=
EXTT4=
EXTT5=
EXTT6=
EXTT7=
EXTT8=
EXTT9=
EXTT10=
EXTT11=
EXTT12=
EXTT13=
EXTT14=
EXTT15=
EXTT16=
EXTT17=
EXTT18=
EXTT19=
PLAYORDER=
